<mxfile host="Electron" modified="2024-01-07T14:52:06.812Z" agent="Mozilla/5.0 (Windows NT 10.0; Win64; x64) AppleWebKit/537.36 (KHTML, like Gecko) draw.io/22.1.16 Chrome/120.0.6099.109 Electron/28.1.0 Safari/537.36" etag="Z8Aj7SK69RLCmaDXUzrF" version="22.1.16" type="device">
  <diagram name="Page-1" id="O-tuzl0lMkPl_UVjh1lK">
    <mxGraphModel dx="1434" dy="884" grid="0" gridSize="10" guides="1" tooltips="1" connect="1" arrows="1" fold="1" page="0" pageScale="1" pageWidth="850" pageHeight="1100" math="0" shadow="0">
      <root>
        <mxCell id="0" />
        <mxCell id="1" parent="0" />
        <mxCell id="6lobfHsguUmzgA-mOxtv-1" value="1" style="ellipse;whiteSpace=wrap;html=1;aspect=fixed;rotation=0;" vertex="1" parent="1">
          <mxGeometry x="292" y="56" width="55" height="55" as="geometry" />
        </mxCell>
        <mxCell id="6lobfHsguUmzgA-mOxtv-2" value="3" style="ellipse;whiteSpace=wrap;html=1;aspect=fixed;rotation=0;" vertex="1" parent="1">
          <mxGeometry x="426" y="239" width="55" height="55" as="geometry" />
        </mxCell>
        <mxCell id="6lobfHsguUmzgA-mOxtv-3" value="13" style="ellipse;whiteSpace=wrap;html=1;aspect=fixed;rotation=0;" vertex="1" parent="1">
          <mxGeometry x="725" y="427" width="55" height="55" as="geometry" />
        </mxCell>
        <mxCell id="6lobfHsguUmzgA-mOxtv-4" value="6" style="ellipse;whiteSpace=wrap;html=1;aspect=fixed;rotation=0;" vertex="1" parent="1">
          <mxGeometry x="158" y="239" width="55" height="55" as="geometry" />
        </mxCell>
        <mxCell id="6lobfHsguUmzgA-mOxtv-5" value="11" style="ellipse;whiteSpace=wrap;html=1;aspect=fixed;rotation=0;" vertex="1" parent="1">
          <mxGeometry x="158" y="458" width="55" height="55" as="geometry" />
        </mxCell>
        <mxCell id="6lobfHsguUmzgA-mOxtv-6" value="4" style="ellipse;whiteSpace=wrap;html=1;aspect=fixed;rotation=0;" vertex="1" parent="1">
          <mxGeometry x="426" y="341" width="55" height="55" as="geometry" />
        </mxCell>
        <mxCell id="6lobfHsguUmzgA-mOxtv-7" value="14" style="ellipse;whiteSpace=wrap;html=1;aspect=fixed;rotation=0;" vertex="1" parent="1">
          <mxGeometry x="600.95" y="341" width="55" height="55" as="geometry" />
        </mxCell>
        <mxCell id="6lobfHsguUmzgA-mOxtv-8" value="12" style="ellipse;whiteSpace=wrap;html=1;aspect=fixed;rotation=0;" vertex="1" parent="1">
          <mxGeometry x="600.95" y="138" width="55" height="55" as="geometry" />
        </mxCell>
        <mxCell id="6lobfHsguUmzgA-mOxtv-9" value="2" style="ellipse;whiteSpace=wrap;html=1;aspect=fixed;rotation=0;" vertex="1" parent="1">
          <mxGeometry x="426" y="138" width="55" height="55" as="geometry" />
        </mxCell>
        <mxCell id="6lobfHsguUmzgA-mOxtv-10" value="10" style="ellipse;whiteSpace=wrap;html=1;aspect=fixed;rotation=0;" vertex="1" parent="1">
          <mxGeometry x="426" y="566" width="55" height="55" as="geometry" />
        </mxCell>
        <mxCell id="6lobfHsguUmzgA-mOxtv-11" value="7" style="ellipse;whiteSpace=wrap;html=1;aspect=fixed;rotation=0;" vertex="1" parent="1">
          <mxGeometry x="158" y="341" width="55" height="55" as="geometry" />
        </mxCell>
        <mxCell id="6lobfHsguUmzgA-mOxtv-12" value="5" style="ellipse;whiteSpace=wrap;html=1;aspect=fixed;rotation=0;" vertex="1" parent="1">
          <mxGeometry x="158" y="138" width="55" height="55" as="geometry" />
        </mxCell>
        <mxCell id="6lobfHsguUmzgA-mOxtv-13" value="9" style="ellipse;whiteSpace=wrap;html=1;aspect=fixed;rotation=0;" vertex="1" parent="1">
          <mxGeometry x="292" y="458" width="55" height="55" as="geometry" />
        </mxCell>
        <mxCell id="6lobfHsguUmzgA-mOxtv-14" value="8" style="ellipse;whiteSpace=wrap;html=1;aspect=fixed;rotation=0;" vertex="1" parent="1">
          <mxGeometry x="426" y="458" width="55" height="55" as="geometry" />
        </mxCell>
        <mxCell id="6lobfHsguUmzgA-mOxtv-15" value="" style="endArrow=classic;html=1;rounded=0;entryX=0.5;entryY=0;entryDx=0;entryDy=0;exitX=0.5;exitY=1;exitDx=0;exitDy=0;" edge="1" parent="1" source="6lobfHsguUmzgA-mOxtv-1" target="6lobfHsguUmzgA-mOxtv-9">
          <mxGeometry width="50" height="50" relative="1" as="geometry">
            <mxPoint x="399" y="358" as="sourcePoint" />
            <mxPoint x="449" y="308" as="targetPoint" />
          </mxGeometry>
        </mxCell>
        <mxCell id="6lobfHsguUmzgA-mOxtv-16" value="" style="endArrow=classic;html=1;rounded=0;entryX=0.5;entryY=0;entryDx=0;entryDy=0;exitX=0.5;exitY=1;exitDx=0;exitDy=0;" edge="1" parent="1" source="6lobfHsguUmzgA-mOxtv-9" target="6lobfHsguUmzgA-mOxtv-2">
          <mxGeometry width="50" height="50" relative="1" as="geometry">
            <mxPoint x="399" y="358" as="sourcePoint" />
            <mxPoint x="449" y="308" as="targetPoint" />
          </mxGeometry>
        </mxCell>
        <mxCell id="6lobfHsguUmzgA-mOxtv-17" value="iss" style="text;html=1;strokeColor=none;fillColor=none;align=center;verticalAlign=middle;whiteSpace=wrap;rounded=0;" vertex="1" parent="1">
          <mxGeometry x="462" y="138" width="60" height="30" as="geometry" />
        </mxCell>
        <mxCell id="6lobfHsguUmzgA-mOxtv-18" value="temp_text" style="text;html=1;strokeColor=none;fillColor=none;align=center;verticalAlign=middle;whiteSpace=wrap;rounded=0;" vertex="1" parent="1">
          <mxGeometry x="352" y="56" width="60" height="30" as="geometry" />
        </mxCell>
        <mxCell id="6lobfHsguUmzgA-mOxtv-19" value="words" style="text;html=1;strokeColor=none;fillColor=none;align=center;verticalAlign=middle;whiteSpace=wrap;rounded=0;" vertex="1" parent="1">
          <mxGeometry x="387" y="212" width="60" height="30" as="geometry" />
        </mxCell>
        <mxCell id="6lobfHsguUmzgA-mOxtv-20" value="" style="endArrow=classic;html=1;rounded=0;entryX=0.5;entryY=0;entryDx=0;entryDy=0;exitX=0.5;exitY=1;exitDx=0;exitDy=0;" edge="1" parent="1" source="6lobfHsguUmzgA-mOxtv-2" target="6lobfHsguUmzgA-mOxtv-6">
          <mxGeometry width="50" height="50" relative="1" as="geometry">
            <mxPoint x="399" y="358" as="sourcePoint" />
            <mxPoint x="449" y="308" as="targetPoint" />
          </mxGeometry>
        </mxCell>
        <mxCell id="6lobfHsguUmzgA-mOxtv-21" value="word" style="text;html=1;strokeColor=none;fillColor=none;align=center;verticalAlign=middle;whiteSpace=wrap;rounded=0;" vertex="1" parent="1">
          <mxGeometry x="399.00000000000006" y="311" width="60" height="30" as="geometry" />
        </mxCell>
        <mxCell id="6lobfHsguUmzgA-mOxtv-22" value="" style="endArrow=classic;html=1;rounded=0;exitX=0;exitY=0.5;exitDx=0;exitDy=0;entryX=0;entryY=0;entryDx=0;entryDy=0;edgeStyle=orthogonalEdgeStyle;curved=1;" edge="1" parent="1" source="6lobfHsguUmzgA-mOxtv-6" target="6lobfHsguUmzgA-mOxtv-6">
          <mxGeometry width="50" height="50" relative="1" as="geometry">
            <mxPoint x="399" y="358" as="sourcePoint" />
            <mxPoint x="271" y="282" as="targetPoint" />
            <Array as="points">
              <mxPoint x="379" y="320" />
            </Array>
          </mxGeometry>
        </mxCell>
        <mxCell id="6lobfHsguUmzgA-mOxtv-23" value="min_distance" style="text;html=1;strokeColor=none;fillColor=none;align=center;verticalAlign=middle;whiteSpace=wrap;rounded=0;" vertex="1" parent="1">
          <mxGeometry x="222" y="141" width="60" height="30" as="geometry" />
        </mxCell>
        <mxCell id="6lobfHsguUmzgA-mOxtv-24" value="best_match" style="text;html=1;strokeColor=none;fillColor=none;align=center;verticalAlign=middle;whiteSpace=wrap;rounded=0;" vertex="1" parent="1">
          <mxGeometry x="90" y="237" width="60" height="30" as="geometry" />
        </mxCell>
        <mxCell id="6lobfHsguUmzgA-mOxtv-25" value="dict_word" style="text;html=1;strokeColor=none;fillColor=none;align=center;verticalAlign=middle;whiteSpace=wrap;rounded=0;" vertex="1" parent="1">
          <mxGeometry x="187" y="311" width="60" height="30" as="geometry" />
        </mxCell>
        <mxCell id="6lobfHsguUmzgA-mOxtv-26" value="" style="endArrow=classic;html=1;rounded=0;entryX=0.5;entryY=0;entryDx=0;entryDy=0;exitX=0.5;exitY=1;exitDx=0;exitDy=0;" edge="1" parent="1" source="6lobfHsguUmzgA-mOxtv-6" target="6lobfHsguUmzgA-mOxtv-14">
          <mxGeometry width="50" height="50" relative="1" as="geometry">
            <mxPoint x="399" y="533" as="sourcePoint" />
            <mxPoint x="449" y="483" as="targetPoint" />
          </mxGeometry>
        </mxCell>
        <mxCell id="6lobfHsguUmzgA-mOxtv-27" value="" style="endArrow=classic;html=1;rounded=0;exitX=1;exitY=0.5;exitDx=0;exitDy=0;entryX=0;entryY=0.5;entryDx=0;entryDy=0;" edge="1" parent="1" source="6lobfHsguUmzgA-mOxtv-11" target="6lobfHsguUmzgA-mOxtv-14">
          <mxGeometry width="50" height="50" relative="1" as="geometry">
            <mxPoint x="399" y="533" as="sourcePoint" />
            <mxPoint x="449" y="483" as="targetPoint" />
          </mxGeometry>
        </mxCell>
        <mxCell id="6lobfHsguUmzgA-mOxtv-28" value="distance" style="text;html=1;strokeColor=none;fillColor=none;align=center;verticalAlign=middle;whiteSpace=wrap;rounded=0;" vertex="1" parent="1">
          <mxGeometry x="452" y="421" width="60" height="30" as="geometry" />
        </mxCell>
        <mxCell id="6lobfHsguUmzgA-mOxtv-29" value="" style="endArrow=classic;html=1;rounded=0;entryX=1;entryY=0.5;entryDx=0;entryDy=0;exitX=0;exitY=0.5;exitDx=0;exitDy=0;" edge="1" parent="1" source="6lobfHsguUmzgA-mOxtv-14" target="6lobfHsguUmzgA-mOxtv-13">
          <mxGeometry width="50" height="50" relative="1" as="geometry">
            <mxPoint x="399" y="533" as="sourcePoint" />
            <mxPoint x="449" y="483" as="targetPoint" />
          </mxGeometry>
        </mxCell>
        <mxCell id="6lobfHsguUmzgA-mOxtv-30" value="" style="endArrow=classic;html=1;rounded=0;entryX=0.5;entryY=0;entryDx=0;entryDy=0;exitX=0.5;exitY=1;exitDx=0;exitDy=0;" edge="1" parent="1" source="6lobfHsguUmzgA-mOxtv-14" target="6lobfHsguUmzgA-mOxtv-10">
          <mxGeometry width="50" height="50" relative="1" as="geometry">
            <mxPoint x="377" y="694" as="sourcePoint" />
            <mxPoint x="427" y="644" as="targetPoint" />
          </mxGeometry>
        </mxCell>
        <mxCell id="6lobfHsguUmzgA-mOxtv-31" value="" style="endArrow=classic;html=1;rounded=0;entryX=0.5;entryY=0;entryDx=0;entryDy=0;exitX=0.5;exitY=1;exitDx=0;exitDy=0;" edge="1" parent="1" source="6lobfHsguUmzgA-mOxtv-11" target="6lobfHsguUmzgA-mOxtv-5">
          <mxGeometry width="50" height="50" relative="1" as="geometry">
            <mxPoint x="377" y="694" as="sourcePoint" />
            <mxPoint x="427" y="644" as="targetPoint" />
          </mxGeometry>
        </mxCell>
        <mxCell id="6lobfHsguUmzgA-mOxtv-32" value="" style="endArrow=classic;html=1;rounded=0;entryX=1;entryY=0.5;entryDx=0;entryDy=0;exitX=0;exitY=0.5;exitDx=0;exitDy=0;" edge="1" parent="1" source="6lobfHsguUmzgA-mOxtv-6" target="6lobfHsguUmzgA-mOxtv-4">
          <mxGeometry width="50" height="50" relative="1" as="geometry">
            <mxPoint x="372" y="289" as="sourcePoint" />
            <mxPoint x="422" y="239" as="targetPoint" />
          </mxGeometry>
        </mxCell>
        <mxCell id="6lobfHsguUmzgA-mOxtv-33" value="" style="endArrow=classic;html=1;rounded=0;entryX=0;entryY=0.5;entryDx=0;entryDy=0;exitX=1;exitY=1;exitDx=0;exitDy=0;" edge="1" parent="1" source="6lobfHsguUmzgA-mOxtv-12" target="6lobfHsguUmzgA-mOxtv-13">
          <mxGeometry width="50" height="50" relative="1" as="geometry">
            <mxPoint x="340" y="443" as="sourcePoint" />
            <mxPoint x="390" y="393" as="targetPoint" />
          </mxGeometry>
        </mxCell>
        <mxCell id="6lobfHsguUmzgA-mOxtv-34" value="" style="endArrow=classic;html=1;rounded=0;entryX=0;entryY=0;entryDx=0;entryDy=0;edgeStyle=orthogonalEdgeStyle;curved=1;exitX=0;exitY=0.5;exitDx=0;exitDy=0;" edge="1" parent="1" source="6lobfHsguUmzgA-mOxtv-11" target="6lobfHsguUmzgA-mOxtv-11">
          <mxGeometry width="50" height="50" relative="1" as="geometry">
            <mxPoint x="89" y="406" as="sourcePoint" />
            <mxPoint x="116" y="392" as="targetPoint" />
            <Array as="points">
              <mxPoint x="158" y="371" />
              <mxPoint x="119" y="371" />
              <mxPoint x="119" y="349" />
            </Array>
          </mxGeometry>
        </mxCell>
        <mxCell id="6lobfHsguUmzgA-mOxtv-35" value="" style="endArrow=classic;html=1;rounded=0;entryX=0;entryY=1;entryDx=0;entryDy=0;exitX=1;exitY=0;exitDx=0;exitDy=0;" edge="1" parent="1" source="6lobfHsguUmzgA-mOxtv-6" target="6lobfHsguUmzgA-mOxtv-8">
          <mxGeometry width="50" height="50" relative="1" as="geometry">
            <mxPoint x="411" y="337" as="sourcePoint" />
            <mxPoint x="337.95" y="380" as="targetPoint" />
          </mxGeometry>
        </mxCell>
        <mxCell id="6lobfHsguUmzgA-mOxtv-36" value="pos" style="text;html=1;strokeColor=none;fillColor=none;align=center;verticalAlign=middle;whiteSpace=wrap;rounded=0;" vertex="1" parent="1">
          <mxGeometry x="638" y="127" width="60" height="30" as="geometry" />
        </mxCell>
        <mxCell id="6lobfHsguUmzgA-mOxtv-37" value="" style="endArrow=classic;html=1;rounded=0;entryX=0.5;entryY=0;entryDx=0;entryDy=0;exitX=0.5;exitY=1;exitDx=0;exitDy=0;" edge="1" parent="1" source="6lobfHsguUmzgA-mOxtv-8" target="6lobfHsguUmzgA-mOxtv-3">
          <mxGeometry width="50" height="50" relative="1" as="geometry">
            <mxPoint x="323" y="621" as="sourcePoint" />
            <mxPoint x="390" y="506" as="targetPoint" />
          </mxGeometry>
        </mxCell>
        <mxCell id="6lobfHsguUmzgA-mOxtv-38" value="15" style="ellipse;whiteSpace=wrap;html=1;aspect=fixed;rotation=0;" vertex="1" parent="1">
          <mxGeometry x="347" y="660" width="55" height="55" as="geometry" />
        </mxCell>
        <mxCell id="6lobfHsguUmzgA-mOxtv-39" value="" style="endArrow=classic;html=1;rounded=0;entryX=0.5;entryY=0;entryDx=0;entryDy=0;exitX=0.5;exitY=1;exitDx=0;exitDy=0;" edge="1" parent="1" source="6lobfHsguUmzgA-mOxtv-1" target="6lobfHsguUmzgA-mOxtv-8">
          <mxGeometry width="50" height="50" relative="1" as="geometry">
            <mxPoint x="313" y="442" as="sourcePoint" />
            <mxPoint x="363" y="392" as="targetPoint" />
          </mxGeometry>
        </mxCell>
        <mxCell id="6lobfHsguUmzgA-mOxtv-40" value="" style="endArrow=classic;html=1;rounded=0;entryX=0.5;entryY=0;entryDx=0;entryDy=0;exitX=0.5;exitY=1;exitDx=0;exitDy=0;" edge="1" parent="1" source="6lobfHsguUmzgA-mOxtv-1" target="6lobfHsguUmzgA-mOxtv-7">
          <mxGeometry width="50" height="50" relative="1" as="geometry">
            <mxPoint x="313" y="442" as="sourcePoint" />
            <mxPoint x="363" y="392" as="targetPoint" />
          </mxGeometry>
        </mxCell>
        <mxCell id="6lobfHsguUmzgA-mOxtv-41" value="" style="endArrow=classic;html=1;rounded=0;entryX=0.5;entryY=0;entryDx=0;entryDy=0;exitX=0.5;exitY=1;exitDx=0;exitDy=0;" edge="1" parent="1" source="6lobfHsguUmzgA-mOxtv-8" target="6lobfHsguUmzgA-mOxtv-7">
          <mxGeometry width="50" height="50" relative="1" as="geometry">
            <mxPoint x="313" y="442" as="sourcePoint" />
            <mxPoint x="363" y="392" as="targetPoint" />
          </mxGeometry>
        </mxCell>
        <mxCell id="6lobfHsguUmzgA-mOxtv-42" value="" style="endArrow=classic;html=1;rounded=0;exitX=1;exitY=0.5;exitDx=0;exitDy=0;entryX=0;entryY=0;entryDx=0;entryDy=0;" edge="1" parent="1" source="6lobfHsguUmzgA-mOxtv-4" target="6lobfHsguUmzgA-mOxtv-7">
          <mxGeometry width="50" height="50" relative="1" as="geometry">
            <mxPoint x="392" y="391" as="sourcePoint" />
            <mxPoint x="442" y="341" as="targetPoint" />
          </mxGeometry>
        </mxCell>
        <mxCell id="6lobfHsguUmzgA-mOxtv-43" value="" style="endArrow=classic;html=1;rounded=0;exitX=1;exitY=0.5;exitDx=0;exitDy=0;entryX=0;entryY=0.5;entryDx=0;entryDy=0;" edge="1" parent="1" source="6lobfHsguUmzgA-mOxtv-6" target="6lobfHsguUmzgA-mOxtv-7">
          <mxGeometry width="50" height="50" relative="1" as="geometry">
            <mxPoint x="392" y="391" as="sourcePoint" />
            <mxPoint x="442" y="341" as="targetPoint" />
          </mxGeometry>
        </mxCell>
        <mxCell id="6lobfHsguUmzgA-mOxtv-44" value="" style="endArrow=classic;html=1;rounded=0;entryX=1;entryY=0;entryDx=0;entryDy=0;edgeStyle=orthogonalEdgeStyle;curved=1;exitX=1;exitY=0.5;exitDx=0;exitDy=0;" edge="1" parent="1" source="6lobfHsguUmzgA-mOxtv-3" target="6lobfHsguUmzgA-mOxtv-3">
          <mxGeometry width="50" height="50" relative="1" as="geometry">
            <mxPoint x="843" y="349" as="sourcePoint" />
            <mxPoint x="733" y="398" as="targetPoint" />
            <Array as="points">
              <mxPoint x="839" y="408" />
            </Array>
          </mxGeometry>
        </mxCell>
        <mxCell id="6lobfHsguUmzgA-mOxtv-45" value="" style="endArrow=classic;html=1;rounded=0;entryX=1;entryY=0.5;entryDx=0;entryDy=0;exitX=0.5;exitY=1;exitDx=0;exitDy=0;edgeStyle=elbowEdgeStyle;" edge="1" parent="1" source="6lobfHsguUmzgA-mOxtv-8" target="6lobfHsguUmzgA-mOxtv-38">
          <mxGeometry width="50" height="50" relative="1" as="geometry">
            <mxPoint x="418" y="436" as="sourcePoint" />
            <mxPoint x="468" y="386" as="targetPoint" />
            <Array as="points">
              <mxPoint x="542" y="442" />
            </Array>
          </mxGeometry>
        </mxCell>
        <mxCell id="6lobfHsguUmzgA-mOxtv-46" value="" style="endArrow=classic;html=1;rounded=0;entryX=0.5;entryY=0;entryDx=0;entryDy=0;exitX=0.5;exitY=1;exitDx=0;exitDy=0;" edge="1" parent="1" source="6lobfHsguUmzgA-mOxtv-1" target="6lobfHsguUmzgA-mOxtv-38">
          <mxGeometry width="50" height="50" relative="1" as="geometry">
            <mxPoint x="418" y="436" as="sourcePoint" />
            <mxPoint x="468" y="386" as="targetPoint" />
          </mxGeometry>
        </mxCell>
        <mxCell id="6lobfHsguUmzgA-mOxtv-47" value="" style="endArrow=classic;html=1;rounded=0;entryX=0.5;entryY=0;entryDx=0;entryDy=0;exitX=0;exitY=0.5;exitDx=0;exitDy=0;" edge="1" parent="1" source="6lobfHsguUmzgA-mOxtv-6" target="6lobfHsguUmzgA-mOxtv-38">
          <mxGeometry width="50" height="50" relative="1" as="geometry">
            <mxPoint x="418" y="436" as="sourcePoint" />
            <mxPoint x="468" y="386" as="targetPoint" />
          </mxGeometry>
        </mxCell>
        <mxCell id="6lobfHsguUmzgA-mOxtv-48" value="" style="endArrow=classic;html=1;rounded=0;exitX=0;exitY=1;exitDx=0;exitDy=0;entryX=0;entryY=0.5;entryDx=0;entryDy=0;edgeStyle=elbowEdgeStyle;elbow=vertical;" edge="1" parent="1" source="6lobfHsguUmzgA-mOxtv-4" target="6lobfHsguUmzgA-mOxtv-38">
          <mxGeometry width="50" height="50" relative="1" as="geometry">
            <mxPoint x="418" y="436" as="sourcePoint" />
            <mxPoint x="468" y="386" as="targetPoint" />
            <Array as="points">
              <mxPoint x="87" y="691" />
            </Array>
          </mxGeometry>
        </mxCell>
        <mxCell id="6lobfHsguUmzgA-mOxtv-49" value="" style="endArrow=classic;html=1;rounded=0;entryX=1;entryY=1;entryDx=0;entryDy=0;exitX=0;exitY=0.5;exitDx=0;exitDy=0;" edge="1" parent="1" source="6lobfHsguUmzgA-mOxtv-3" target="6lobfHsguUmzgA-mOxtv-6">
          <mxGeometry width="50" height="50" relative="1" as="geometry">
            <mxPoint x="432" y="472" as="sourcePoint" />
            <mxPoint x="482" y="422" as="targetPoint" />
          </mxGeometry>
        </mxCell>
        <mxCell id="6lobfHsguUmzgA-mOxtv-51" value="" style="endArrow=classic;html=1;rounded=0;entryX=0;entryY=1;entryDx=0;entryDy=0;exitX=0;exitY=0.5;exitDx=0;exitDy=0;edgeStyle=orthogonalEdgeStyle;curved=1;" edge="1" parent="1" source="6lobfHsguUmzgA-mOxtv-5" target="6lobfHsguUmzgA-mOxtv-11">
          <mxGeometry width="50" height="50" relative="1" as="geometry">
            <mxPoint x="399" y="478" as="sourcePoint" />
            <mxPoint x="449" y="428" as="targetPoint" />
            <Array as="points">
              <mxPoint x="148" y="486" />
              <mxPoint x="148" y="388" />
            </Array>
          </mxGeometry>
        </mxCell>
        <mxCell id="6lobfHsguUmzgA-mOxtv-52" value="" style="endArrow=classic;html=1;rounded=0;entryX=1;entryY=1;entryDx=0;entryDy=0;exitX=0;exitY=0.5;exitDx=0;exitDy=0;" edge="1" parent="1" source="6lobfHsguUmzgA-mOxtv-13" target="6lobfHsguUmzgA-mOxtv-11">
          <mxGeometry width="50" height="50" relative="1" as="geometry">
            <mxPoint x="399" y="478" as="sourcePoint" />
            <mxPoint x="449" y="428" as="targetPoint" />
          </mxGeometry>
        </mxCell>
        <mxCell id="6lobfHsguUmzgA-mOxtv-53" value="" style="endArrow=classic;html=1;rounded=0;entryX=0;entryY=0.5;entryDx=0;entryDy=0;exitX=1;exitY=0;exitDx=0;exitDy=0;" edge="1" parent="1" source="6lobfHsguUmzgA-mOxtv-11" target="6lobfHsguUmzgA-mOxtv-8">
          <mxGeometry width="50" height="50" relative="1" as="geometry">
            <mxPoint x="399" y="478" as="sourcePoint" />
            <mxPoint x="449" y="428" as="targetPoint" />
          </mxGeometry>
        </mxCell>
        <mxCell id="6lobfHsguUmzgA-mOxtv-54" value="" style="endArrow=classic;html=1;rounded=0;entryX=0.5;entryY=1;entryDx=0;entryDy=0;exitX=0.5;exitY=1;exitDx=0;exitDy=0;edgeStyle=orthogonalEdgeStyle;curved=1;" edge="1" parent="1" source="6lobfHsguUmzgA-mOxtv-38" target="6lobfHsguUmzgA-mOxtv-3">
          <mxGeometry width="50" height="50" relative="1" as="geometry">
            <mxPoint x="399" y="478" as="sourcePoint" />
            <mxPoint x="449" y="428" as="targetPoint" />
          </mxGeometry>
        </mxCell>
      </root>
    </mxGraphModel>
  </diagram>
</mxfile>
